# xmcd CD database file
#
# Track frame offsets:
#	187
#	11500
#	23132
#	33802
#	45722
#	56630
#	67720
#	82280
#	92775
#	106070
#	115080
#	125470
#	136377
#	149230
#	160812
#	170157
#
# Disc length: 2413 seconds
#
# Revision: 2
# Processed by: cddbd v1.5.2PL0 Copyright (c) Steve Scherf et al.
# Submitted via: jetAudio 7
#
DISCID=d9096b10
DTITLE=Floyd Cramer - The Magic Touch Of Floyd Cramer [Pair]
DYEAR=1989
DGENRE=Instrumental
TTITLE0=Cotton Fields
TTITLE1=San Antonio Rose
TTITLE2=Today I Started Loving You
TTITLE3=Faded Love
TTITLE4=Shenandoah
TTITLE5=Wabash Cannonball
TTITLE6=Goodnight, Irene
TTITLE7=Tennessee Waltz
TTITLE8=By The Time I Get To Phoenix
TTITLE9=Misty Blue
TTITLE10=Laura
TTITLE11=Welcome To My World
TTITLE12=Ode To Billy Joe
TTITLE13=What Locks The Door
TTITLE14=Gentle On My Mind
TTITLE15=Green, Green Grass Of Home
EXTD=
EXTT0=
EXTT1=
EXTT2=
EXTT3=
EXTT4=
EXTT5=
EXTT6=
EXTT7=
EXTT8=
EXTT9=
EXTT10=
EXTT11=
EXTT12=
EXTT13=
EXTT14=
EXTT15=
PLAYORDER=
